<?xml version="1.0" encoding="utf-8"?>
<!-- Generator: Adobe Illustrator 19.0.0, SVG Export Plug-In . SVG Version: 6.00 Build 0)  -->
<svg version="1.1" id="图层_1" xmlns="http://www.w3.org/2000/svg" xmlns:xlink="http://www.w3.org/1999/xlink" x="0px" y="0px"
	 viewBox="0 0 194 130" style="enable-background:new 0 0 194 130;" xml:space="preserve">
<style type="text/css">
	.st0{opacity:0.1;fill:url(#XMLID_5_);}
	.st1{fill:#90C2EB;}
	.st2{fill:#F6FBFF;}
	.st3{fill:#FFFFFF;}
</style>
<g id="XMLID_1_">
	
		<linearGradient id="XMLID_5_" gradientUnits="userSpaceOnUse" x1="-220.0425" y1="628.68" x2="-220.0425" y2="627.68" gradientTransform="matrix(162.844 0 0 -100 35929.5234 62898)">
		<stop  offset="0.53" style="stop-color:#00579E"/>
		<stop  offset="1" style="stop-color:#90C2EB"/>
	</linearGradient>
	<path id="XMLID_15_" class="st0" d="M139.5,118.9h-18.1v0C110.2,125.8,96,130,80.5,130c-35.9,0-65-22.4-65-50s29.1-50,65-50
		c15.5,0,29.7,4.2,40.8,11.1v0h18.1c21.5,0,38.9,17.4,38.9,38.9l0,0C178.4,101.5,160.9,118.9,139.5,118.9z"/>
	<path id="XMLID_2_" class="st1" d="M138.4,100h-18.9c-10.9,6.3-24.3,10-39,10c-35.5,0-64.3-21.8-65-49h0v-7H16
		c3.9-24.8,31.3-44,64.5-44c14.6,0,28.1,3.7,39,10h18.9c22.1,0,40,17.9,40,40l0,0C178.4,82.1,160.4,100,138.4,100z"/>
	<path id="XMLID_3_" class="st2" d="M138.4,90h-18.8c-10.9,6.3-24.4,10-39,10c-35.9,0-65-22.4-65-50s29.1-50,65-50
		c14.6,0,28.1,3.7,39,10h18.8c22.1,0,40,17.9,40,40S160.4,90,138.4,90z"/>
	<g id="XMLID_9_">
		<path id="XMLID_10_" class="st3" d="M178,95.2c11.9-5.3,15.3-13.3,10.6-26.9C199.1,78.8,193.5,97.5,178,95.2z M166.5,115.2
			c13.2-2.8,19.1-6.8,25.3-17.7C188.7,112.3,177.3,117.7,166.5,115.2z M2.2,97.3c6.2,10.8,12.2,14.7,25.4,17.6
			C16.8,117.3,5.3,112,2.2,97.3z M5.4,68.2C0.7,81.8,4.1,89.8,16,95C0.5,97.4-5.2,78.7,5.4,68.2z"/>
	</g>
</g>
</svg>
